<mxfile host="app.diagrams.net" modified="2022-04-02T09:20:16.547Z" agent="5.0 (Windows NT 10.0; WOW64) AppleWebKit/537.36 (KHTML, like Gecko) Chrome/99.0.4844.84 Safari/537.36" etag="wxynBQFgL00NkSQ7K9Ic" version="17.4.0" type="github">
  <diagram name="Page-1" id="97916047-d0de-89f5-080d-49f4d83e522f">
    <mxGraphModel dx="3806" dy="1774" grid="1" gridSize="10" guides="1" tooltips="1" connect="1" arrows="1" fold="1" page="1" pageScale="1.5" pageWidth="1169" pageHeight="827" background="none" math="0" shadow="0">
      <root>
        <mxCell id="0" />
        <mxCell id="1" parent="0" />
        <mxCell id="2" value="CEO" style="rounded=1;fillColor=none;strokeColor=none;shadow=1;gradientColor=none;fontStyle=1;fontColor=#FFFFFF;fontSize=14;strokeWidth=3;" parent="1" vertex="1">
          <mxGeometry x="843" y="205.5" width="200" height="60" as="geometry" />
        </mxCell>
        <mxCell id="3" value="Deputy Director" style="rounded=1;fillColor=none;strokeColor=none;shadow=1;gradientColor=none;fontStyle=1;fontColor=#FFFFFF;fontSize=14;strokeWidth=3;" parent="1" vertex="1">
          <mxGeometry x="833" y="345.5" width="220" height="60" as="geometry" />
        </mxCell>
        <mxCell id="WE8A1NrM9itR784JBcD1-55" value="0.&lt;br&gt;Sistem Informasi Penyewaan DVD" style="rounded=0;whiteSpace=wrap;html=1;hachureGap=4;fillColor=default;fontStyle=1;strokeWidth=3;" parent="1" vertex="1">
          <mxGeometry x="863" y="178.5" width="160" height="80" as="geometry" />
        </mxCell>
        <mxCell id="WE8A1NrM9itR784JBcD1-56" value="3.0&lt;br&gt;Deposit" style="rounded=0;whiteSpace=wrap;html=1;hachureGap=4;fillColor=default;fontStyle=1;strokeWidth=3;" parent="1" vertex="1">
          <mxGeometry x="731" y="380" width="160" height="80" as="geometry" />
        </mxCell>
        <mxCell id="WE8A1NrM9itR784JBcD1-58" value="1.0&lt;br&gt;Pendataan Film" style="rounded=0;whiteSpace=wrap;html=1;hachureGap=4;fillColor=default;fontStyle=1;strokeWidth=3;" parent="1" vertex="1">
          <mxGeometry x="231" y="380" width="160" height="80" as="geometry" />
        </mxCell>
        <mxCell id="WE8A1NrM9itR784JBcD1-59" value="6.0&lt;br&gt;Pembuatan Laporan" style="rounded=0;whiteSpace=wrap;html=1;hachureGap=4;fillColor=default;fontStyle=1;strokeWidth=3;" parent="1" vertex="1">
          <mxGeometry x="1491" y="380" width="160" height="80" as="geometry" />
        </mxCell>
        <mxCell id="WE8A1NrM9itR784JBcD1-60" value="5.0&lt;br&gt;Pengembalian" style="rounded=0;whiteSpace=wrap;html=1;hachureGap=4;fillColor=default;fontStyle=1;strokeWidth=3;" parent="1" vertex="1">
          <mxGeometry x="1231" y="380" width="160" height="80" as="geometry" />
        </mxCell>
        <mxCell id="WE8A1NrM9itR784JBcD1-61" value="4.0&lt;br&gt;Penyewaan" style="rounded=0;whiteSpace=wrap;html=1;hachureGap=4;fillColor=default;fontStyle=1;strokeWidth=3;" parent="1" vertex="1">
          <mxGeometry x="981" y="380" width="160" height="80" as="geometry" />
        </mxCell>
        <mxCell id="WE8A1NrM9itR784JBcD1-62" value="2.0&lt;br&gt;Pendaftaran" style="rounded=0;whiteSpace=wrap;html=1;hachureGap=4;fillColor=default;fontStyle=1;strokeWidth=3;" parent="1" vertex="1">
          <mxGeometry x="471" y="380" width="160" height="80" as="geometry" />
        </mxCell>
        <mxCell id="WE8A1NrM9itR784JBcD1-75" value="" style="endArrow=none;html=1;rounded=0;fontSize=13;startSize=14;endSize=14;sourcePerimeterSpacing=8;targetPerimeterSpacing=8;curved=1;entryX=0.5;entryY=1;entryDx=0;entryDy=0;fontStyle=1;strokeWidth=3;" parent="1" edge="1">
          <mxGeometry width="50" height="50" relative="1" as="geometry">
            <mxPoint x="943" y="320" as="sourcePoint" />
            <mxPoint x="943" y="258.5" as="targetPoint" />
          </mxGeometry>
        </mxCell>
        <mxCell id="WE8A1NrM9itR784JBcD1-76" value="" style="endArrow=none;html=1;rounded=0;fontSize=13;startSize=14;endSize=14;sourcePerimeterSpacing=8;targetPerimeterSpacing=8;curved=1;fontStyle=1;strokeWidth=3;" parent="1" edge="1">
          <mxGeometry width="50" height="50" relative="1" as="geometry">
            <mxPoint x="1580" y="320" as="sourcePoint" />
            <mxPoint x="310" y="320" as="targetPoint" />
          </mxGeometry>
        </mxCell>
        <mxCell id="WE8A1NrM9itR784JBcD1-77" value="" style="endArrow=none;html=1;rounded=0;fontSize=13;startSize=14;endSize=14;sourcePerimeterSpacing=8;targetPerimeterSpacing=8;curved=1;fontStyle=1;strokeWidth=3;" parent="1" edge="1">
          <mxGeometry width="50" height="50" relative="1" as="geometry">
            <mxPoint x="310.7299999999998" y="380" as="sourcePoint" />
            <mxPoint x="310" y="320" as="targetPoint" />
          </mxGeometry>
        </mxCell>
        <mxCell id="WE8A1NrM9itR784JBcD1-78" value="" style="endArrow=none;html=1;rounded=0;fontSize=13;startSize=14;endSize=14;sourcePerimeterSpacing=8;targetPerimeterSpacing=8;curved=1;fontStyle=1;strokeWidth=3;" parent="1" edge="1">
          <mxGeometry width="50" height="50" relative="1" as="geometry">
            <mxPoint x="550.7299999999998" y="380" as="sourcePoint" />
            <mxPoint x="551" y="320" as="targetPoint" />
          </mxGeometry>
        </mxCell>
        <mxCell id="WE8A1NrM9itR784JBcD1-79" value="" style="endArrow=none;html=1;rounded=0;fontSize=13;startSize=14;endSize=14;sourcePerimeterSpacing=8;targetPerimeterSpacing=8;curved=1;fontStyle=1;strokeWidth=3;" parent="1" edge="1">
          <mxGeometry width="50" height="50" relative="1" as="geometry">
            <mxPoint x="1579.9999999999998" y="380" as="sourcePoint" />
            <mxPoint x="1580" y="320" as="targetPoint" />
          </mxGeometry>
        </mxCell>
        <mxCell id="WE8A1NrM9itR784JBcD1-80" value="" style="endArrow=none;html=1;rounded=0;fontSize=13;startSize=14;endSize=14;sourcePerimeterSpacing=8;targetPerimeterSpacing=8;curved=1;fontStyle=1;strokeWidth=3;" parent="1" edge="1">
          <mxGeometry width="50" height="50" relative="1" as="geometry">
            <mxPoint x="1310.7999999999997" y="380" as="sourcePoint" />
            <mxPoint x="1310" y="320" as="targetPoint" />
          </mxGeometry>
        </mxCell>
        <mxCell id="WE8A1NrM9itR784JBcD1-81" value="" style="endArrow=none;html=1;rounded=0;fontSize=13;startSize=14;endSize=14;sourcePerimeterSpacing=8;targetPerimeterSpacing=8;curved=1;exitX=0.25;exitY=0;exitDx=0;exitDy=0;fontStyle=1;strokeWidth=3;" parent="1" edge="1">
          <mxGeometry width="50" height="50" relative="1" as="geometry">
            <mxPoint x="1058" y="380" as="sourcePoint" />
            <mxPoint x="1057" y="320" as="targetPoint" />
          </mxGeometry>
        </mxCell>
        <mxCell id="WE8A1NrM9itR784JBcD1-82" value="" style="endArrow=none;html=1;rounded=0;fontSize=13;startSize=14;endSize=14;sourcePerimeterSpacing=8;targetPerimeterSpacing=8;curved=1;exitX=0.5;exitY=0;exitDx=0;exitDy=0;fontStyle=1;strokeWidth=3;" parent="1" source="WE8A1NrM9itR784JBcD1-56" edge="1">
          <mxGeometry width="50" height="50" relative="1" as="geometry">
            <mxPoint x="1002.9999999999998" y="380" as="sourcePoint" />
            <mxPoint x="810" y="320" as="targetPoint" />
          </mxGeometry>
        </mxCell>
        <mxCell id="WE8A1NrM9itR784JBcD1-83" value="1.1&lt;br&gt;Pendataan Jenis Film" style="rounded=0;whiteSpace=wrap;html=1;hachureGap=4;fillColor=default;fontStyle=1;strokeWidth=3;" parent="1" vertex="1">
          <mxGeometry x="231" y="700" width="160" height="80" as="geometry" />
        </mxCell>
        <mxCell id="WE8A1NrM9itR784JBcD1-84" value="1.3&lt;br&gt;Pendataan Film" style="rounded=0;whiteSpace=wrap;html=1;hachureGap=4;fillColor=default;fontStyle=1;strokeWidth=3;" parent="1" vertex="1">
          <mxGeometry x="231" y="960" width="160" height="80" as="geometry" />
        </mxCell>
        <mxCell id="WE8A1NrM9itR784JBcD1-85" value="1.2&lt;br&gt;Permintaan Film" style="rounded=0;whiteSpace=wrap;html=1;hachureGap=4;fillColor=default;fontStyle=1;strokeWidth=3;" parent="1" vertex="1">
          <mxGeometry x="231" y="830" width="160" height="80" as="geometry" />
        </mxCell>
        <mxCell id="WE8A1NrM9itR784JBcD1-86" value="2.1&lt;br&gt;Pendataan Pelanggan" style="rounded=0;whiteSpace=wrap;html=1;hachureGap=4;fillColor=default;fontStyle=1;strokeWidth=3;" parent="1" vertex="1">
          <mxGeometry x="471" y="700" width="160" height="80" as="geometry" />
        </mxCell>
        <mxCell id="WE8A1NrM9itR784JBcD1-87" value="2.2&lt;br&gt;Pembuatan Id Pelanggan" style="rounded=0;whiteSpace=wrap;html=1;hachureGap=4;fillColor=default;fontStyle=1;strokeWidth=3;" parent="1" vertex="1">
          <mxGeometry x="471" y="830" width="160" height="80" as="geometry" />
        </mxCell>
        <mxCell id="WE8A1NrM9itR784JBcD1-88" value="3.2&lt;br&gt;Pengisian Saldo" style="rounded=0;whiteSpace=wrap;html=1;hachureGap=4;fillColor=default;fontStyle=1;strokeWidth=3;" parent="1" vertex="1">
          <mxGeometry x="731" y="700" width="160" height="80" as="geometry" />
        </mxCell>
        <mxCell id="WE8A1NrM9itR784JBcD1-89" value="3.2&lt;br&gt;Penambahan Saldo" style="rounded=0;whiteSpace=wrap;html=1;hachureGap=4;fillColor=default;fontStyle=1;strokeWidth=3;" parent="1" vertex="1">
          <mxGeometry x="731" y="830" width="160" height="80" as="geometry" />
        </mxCell>
        <mxCell id="WE8A1NrM9itR784JBcD1-90" value="1.0&lt;br&gt;Pendataan Film" style="rounded=0;whiteSpace=wrap;html=1;hachureGap=4;fillColor=default;fontStyle=1;strokeWidth=3;" parent="1" vertex="1">
          <mxGeometry x="981" y="700" width="160" height="80" as="geometry" />
        </mxCell>
        <mxCell id="WE8A1NrM9itR784JBcD1-91" value="4.1&lt;br&gt;Pendataan Penyewaan" style="rounded=0;whiteSpace=wrap;html=1;hachureGap=4;fillColor=default;fontStyle=1;strokeWidth=3;" parent="1" vertex="1">
          <mxGeometry x="981" y="700" width="160" height="80" as="geometry" />
        </mxCell>
        <mxCell id="WE8A1NrM9itR784JBcD1-92" value="4.2&lt;br&gt;Penyewaan Film" style="rounded=0;whiteSpace=wrap;html=1;hachureGap=4;fillColor=default;fontStyle=1;strokeWidth=3;" parent="1" vertex="1">
          <mxGeometry x="981" y="830" width="160" height="80" as="geometry" />
        </mxCell>
        <mxCell id="WE8A1NrM9itR784JBcD1-93" value="5.1&lt;br&gt;Pengembalian Film" style="rounded=0;whiteSpace=wrap;html=1;hachureGap=4;fillColor=default;fontStyle=1;strokeWidth=3;" parent="1" vertex="1">
          <mxGeometry x="1231" y="700" width="160" height="80" as="geometry" />
        </mxCell>
        <mxCell id="WE8A1NrM9itR784JBcD1-94" value="5.2&lt;br&gt;Perhitungan Denda" style="rounded=0;whiteSpace=wrap;html=1;hachureGap=4;fillColor=default;fontStyle=1;strokeWidth=3;" parent="1" vertex="1">
          <mxGeometry x="1231" y="830" width="160" height="80" as="geometry" />
        </mxCell>
        <mxCell id="WE8A1NrM9itR784JBcD1-95" value="" style="endArrow=none;html=1;rounded=0;fontSize=13;startSize=14;endSize=14;sourcePerimeterSpacing=8;targetPerimeterSpacing=8;curved=1;fontStyle=1;strokeWidth=3;" parent="1" edge="1">
          <mxGeometry width="50" height="50" relative="1" as="geometry">
            <mxPoint x="200" y="1000" as="sourcePoint" />
            <mxPoint x="200" y="420" as="targetPoint" />
          </mxGeometry>
        </mxCell>
        <mxCell id="WE8A1NrM9itR784JBcD1-96" value="" style="endArrow=none;html=1;rounded=0;fontSize=13;startSize=14;endSize=14;sourcePerimeterSpacing=8;targetPerimeterSpacing=8;curved=1;fontStyle=1;strokeWidth=3;" parent="1" edge="1">
          <mxGeometry width="50" height="50" relative="1" as="geometry">
            <mxPoint x="200" y="880" as="sourcePoint" />
            <mxPoint x="230" y="880" as="targetPoint" />
          </mxGeometry>
        </mxCell>
        <mxCell id="WE8A1NrM9itR784JBcD1-97" value="" style="endArrow=none;html=1;rounded=0;fontSize=13;startSize=14;endSize=14;sourcePerimeterSpacing=8;targetPerimeterSpacing=8;curved=1;fontStyle=1;strokeWidth=3;exitX=0;exitY=0.5;exitDx=0;exitDy=0;" parent="1" edge="1" source="WE8A1NrM9itR784JBcD1-84">
          <mxGeometry width="50" height="50" relative="1" as="geometry">
            <mxPoint x="311.05999999999983" y="960" as="sourcePoint" />
            <mxPoint x="200" y="1000" as="targetPoint" />
          </mxGeometry>
        </mxCell>
        <mxCell id="WE8A1NrM9itR784JBcD1-98" value="" style="endArrow=none;html=1;rounded=0;fontSize=13;startSize=14;endSize=14;sourcePerimeterSpacing=8;targetPerimeterSpacing=8;curved=1;fontStyle=1;strokeWidth=3;" parent="1" edge="1">
          <mxGeometry width="50" height="50" relative="1" as="geometry">
            <mxPoint x="471" y="879" as="sourcePoint" />
            <mxPoint x="441" y="879" as="targetPoint" />
          </mxGeometry>
        </mxCell>
        <mxCell id="WE8A1NrM9itR784JBcD1-103" value="" style="endArrow=none;html=1;rounded=0;fontSize=13;startSize=14;endSize=14;sourcePerimeterSpacing=8;targetPerimeterSpacing=8;curved=1;entryX=0.5;entryY=1;entryDx=0;entryDy=0;fontStyle=1;strokeWidth=3;" parent="1" edge="1">
          <mxGeometry width="50" height="50" relative="1" as="geometry">
            <mxPoint x="700" y="880" as="sourcePoint" />
            <mxPoint x="700.0000000000001" y="420" as="targetPoint" />
          </mxGeometry>
        </mxCell>
        <mxCell id="WE8A1NrM9itR784JBcD1-104" value="" style="endArrow=none;html=1;rounded=0;fontSize=13;startSize=14;endSize=14;sourcePerimeterSpacing=8;targetPerimeterSpacing=8;curved=1;fontStyle=1;strokeWidth=3;" parent="1" edge="1">
          <mxGeometry width="50" height="50" relative="1" as="geometry">
            <mxPoint x="440" y="880" as="sourcePoint" />
            <mxPoint x="440" y="420" as="targetPoint" />
          </mxGeometry>
        </mxCell>
        <mxCell id="WE8A1NrM9itR784JBcD1-105" value="" style="endArrow=none;html=1;rounded=0;fontSize=13;startSize=14;endSize=14;sourcePerimeterSpacing=8;targetPerimeterSpacing=8;curved=1;entryX=0.5;entryY=1;entryDx=0;entryDy=0;fontStyle=1;strokeWidth=3;" parent="1" edge="1">
          <mxGeometry width="50" height="50" relative="1" as="geometry">
            <mxPoint x="950" y="880" as="sourcePoint" />
            <mxPoint x="950.0000000000001" y="420" as="targetPoint" />
          </mxGeometry>
        </mxCell>
        <mxCell id="WE8A1NrM9itR784JBcD1-106" value="" style="endArrow=none;html=1;rounded=0;fontSize=13;startSize=14;endSize=14;sourcePerimeterSpacing=8;targetPerimeterSpacing=8;curved=1;entryX=0.5;entryY=1;entryDx=0;entryDy=0;fontStyle=1;strokeWidth=3;" parent="1" edge="1">
          <mxGeometry width="50" height="50" relative="1" as="geometry">
            <mxPoint x="1210" y="880" as="sourcePoint" />
            <mxPoint x="1210" y="420" as="targetPoint" />
          </mxGeometry>
        </mxCell>
        <mxCell id="WE8A1NrM9itR784JBcD1-107" value="" style="endArrow=none;dashed=1;html=1;rounded=0;fontSize=13;startSize=14;endSize=14;sourcePerimeterSpacing=8;targetPerimeterSpacing=8;curved=1;fontStyle=1;strokeWidth=3;" parent="1" edge="1">
          <mxGeometry width="50" height="50" relative="1" as="geometry">
            <mxPoint x="310" y="280" as="sourcePoint" />
            <mxPoint x="1580" y="280" as="targetPoint" />
          </mxGeometry>
        </mxCell>
        <mxCell id="WE8A1NrM9itR784JBcD1-108" value="" style="endArrow=none;html=1;rounded=0;fontSize=13;startSize=14;endSize=14;sourcePerimeterSpacing=8;targetPerimeterSpacing=8;curved=1;fontStyle=1;strokeWidth=3;" parent="1" edge="1">
          <mxGeometry width="50" height="50" relative="1" as="geometry">
            <mxPoint x="140" y="540" as="sourcePoint" />
            <mxPoint x="1650" y="540" as="targetPoint" />
          </mxGeometry>
        </mxCell>
        <mxCell id="8NZKzY84PPoOiQ8WxDY7-3" value="" style="endArrow=none;html=1;rounded=0;fontSize=13;startSize=14;endSize=14;sourcePerimeterSpacing=8;targetPerimeterSpacing=8;curved=1;fontStyle=1;strokeWidth=3;" edge="1" parent="1">
          <mxGeometry width="50" height="50" relative="1" as="geometry">
            <mxPoint x="471" y="739.94" as="sourcePoint" />
            <mxPoint x="441" y="739.94" as="targetPoint" />
          </mxGeometry>
        </mxCell>
        <mxCell id="8NZKzY84PPoOiQ8WxDY7-4" value="" style="endArrow=none;html=1;rounded=0;fontSize=13;startSize=14;endSize=14;sourcePerimeterSpacing=8;targetPerimeterSpacing=8;curved=1;fontStyle=1;strokeWidth=3;" edge="1" parent="1">
          <mxGeometry width="50" height="50" relative="1" as="geometry">
            <mxPoint x="471" y="421.77000000000004" as="sourcePoint" />
            <mxPoint x="441" y="421.77000000000004" as="targetPoint" />
          </mxGeometry>
        </mxCell>
        <mxCell id="8NZKzY84PPoOiQ8WxDY7-5" value="" style="endArrow=none;html=1;rounded=0;fontSize=13;startSize=14;endSize=14;sourcePerimeterSpacing=8;targetPerimeterSpacing=8;curved=1;fontStyle=1;strokeWidth=3;" edge="1" parent="1">
          <mxGeometry width="50" height="50" relative="1" as="geometry">
            <mxPoint x="231" y="421.85999999999996" as="sourcePoint" />
            <mxPoint x="201" y="421.85999999999996" as="targetPoint" />
          </mxGeometry>
        </mxCell>
        <mxCell id="8NZKzY84PPoOiQ8WxDY7-6" value="" style="endArrow=none;html=1;rounded=0;fontSize=13;startSize=14;endSize=14;sourcePerimeterSpacing=8;targetPerimeterSpacing=8;curved=1;fontStyle=1;strokeWidth=3;" edge="1" parent="1">
          <mxGeometry width="50" height="50" relative="1" as="geometry">
            <mxPoint x="731" y="422" as="sourcePoint" />
            <mxPoint x="701" y="422" as="targetPoint" />
          </mxGeometry>
        </mxCell>
        <mxCell id="8NZKzY84PPoOiQ8WxDY7-7" value="" style="endArrow=none;html=1;rounded=0;fontSize=13;startSize=14;endSize=14;sourcePerimeterSpacing=8;targetPerimeterSpacing=8;curved=1;fontStyle=1;strokeWidth=3;" edge="1" parent="1">
          <mxGeometry width="50" height="50" relative="1" as="geometry">
            <mxPoint x="981" y="422" as="sourcePoint" />
            <mxPoint x="951" y="422" as="targetPoint" />
          </mxGeometry>
        </mxCell>
        <mxCell id="8NZKzY84PPoOiQ8WxDY7-8" value="" style="endArrow=none;html=1;rounded=0;fontSize=13;startSize=14;endSize=14;sourcePerimeterSpacing=8;targetPerimeterSpacing=8;curved=1;fontStyle=1;strokeWidth=3;" edge="1" parent="1">
          <mxGeometry width="50" height="50" relative="1" as="geometry">
            <mxPoint x="1231" y="419.86" as="sourcePoint" />
            <mxPoint x="1210" y="420" as="targetPoint" />
          </mxGeometry>
        </mxCell>
        <mxCell id="8NZKzY84PPoOiQ8WxDY7-9" value="" style="endArrow=none;html=1;rounded=0;fontSize=13;startSize=14;endSize=14;sourcePerimeterSpacing=8;targetPerimeterSpacing=8;curved=1;entryX=-0.018;entryY=0.616;entryDx=0;entryDy=0;fontStyle=1;strokeWidth=3;entryPerimeter=0;" edge="1" parent="1">
          <mxGeometry width="50" height="50" relative="1" as="geometry">
            <mxPoint x="200" y="740" as="sourcePoint" />
            <mxPoint x="231.0000000000001" y="739.6400000000002" as="targetPoint" />
          </mxGeometry>
        </mxCell>
        <mxCell id="8NZKzY84PPoOiQ8WxDY7-10" value="" style="endArrow=none;html=1;rounded=0;fontSize=13;startSize=14;endSize=14;sourcePerimeterSpacing=8;targetPerimeterSpacing=8;curved=1;fontStyle=1;strokeWidth=3;" edge="1" parent="1">
          <mxGeometry width="50" height="50" relative="1" as="geometry">
            <mxPoint x="731" y="739.87" as="sourcePoint" />
            <mxPoint x="701" y="739.87" as="targetPoint" />
          </mxGeometry>
        </mxCell>
        <mxCell id="8NZKzY84PPoOiQ8WxDY7-11" value="" style="endArrow=none;html=1;rounded=0;fontSize=13;startSize=14;endSize=14;sourcePerimeterSpacing=8;targetPerimeterSpacing=8;curved=1;fontStyle=1;strokeWidth=3;" edge="1" parent="1">
          <mxGeometry width="50" height="50" relative="1" as="geometry">
            <mxPoint x="731" y="878.87" as="sourcePoint" />
            <mxPoint x="701" y="878.87" as="targetPoint" />
          </mxGeometry>
        </mxCell>
        <mxCell id="8NZKzY84PPoOiQ8WxDY7-12" value="" style="endArrow=none;html=1;rounded=0;fontSize=13;startSize=14;endSize=14;sourcePerimeterSpacing=8;targetPerimeterSpacing=8;curved=1;fontStyle=1;strokeWidth=3;" edge="1" parent="1">
          <mxGeometry width="50" height="50" relative="1" as="geometry">
            <mxPoint x="981" y="877.9999999999999" as="sourcePoint" />
            <mxPoint x="951" y="877.9999999999999" as="targetPoint" />
          </mxGeometry>
        </mxCell>
        <mxCell id="8NZKzY84PPoOiQ8WxDY7-13" value="" style="endArrow=none;html=1;rounded=0;fontSize=13;startSize=14;endSize=14;sourcePerimeterSpacing=8;targetPerimeterSpacing=8;curved=1;fontStyle=1;strokeWidth=3;" edge="1" parent="1">
          <mxGeometry width="50" height="50" relative="1" as="geometry">
            <mxPoint x="981" y="739.84" as="sourcePoint" />
            <mxPoint x="951" y="739.84" as="targetPoint" />
          </mxGeometry>
        </mxCell>
        <mxCell id="8NZKzY84PPoOiQ8WxDY7-14" value="" style="endArrow=none;html=1;rounded=0;fontSize=13;startSize=14;endSize=14;sourcePerimeterSpacing=8;targetPerimeterSpacing=8;curved=1;fontStyle=1;strokeWidth=3;" edge="1" parent="1">
          <mxGeometry width="50" height="50" relative="1" as="geometry">
            <mxPoint x="1230" y="879" as="sourcePoint" />
            <mxPoint x="1210" y="879.0000000000001" as="targetPoint" />
          </mxGeometry>
        </mxCell>
        <mxCell id="8NZKzY84PPoOiQ8WxDY7-15" value="" style="endArrow=none;html=1;rounded=0;fontSize=13;startSize=14;endSize=14;sourcePerimeterSpacing=8;targetPerimeterSpacing=8;curved=1;fontStyle=1;strokeWidth=3;" edge="1" parent="1">
          <mxGeometry width="50" height="50" relative="1" as="geometry">
            <mxPoint x="1231" y="750.0000000000001" as="sourcePoint" />
            <mxPoint x="1210" y="750" as="targetPoint" />
          </mxGeometry>
        </mxCell>
      </root>
    </mxGraphModel>
  </diagram>
</mxfile>
